PathFileType	4	(X/Y/Z)	C:/Users/opensim2020/Desktop/walking_exp_matlab/subject03_walking13_straight_04.trc	
DataRate	CameraRate	NumFrames	NumMarkers	Units	OrigDataRate	OrigDataStartFrame	OrigNumFrames	
100.00	100.00	7	46	mm	100.00	2212	200	
Frame#	Time	LFHD			RFHD			LBHD			RBHD			C7			T10			CLAV			STRN			RBAK			LSHO			LUPA			LELB			LFRM			LWRA			LWRB			LFIN			RSHO			RUPA			RELB			RFRM			RWRA			RWRB			RFIN			LASI			RASI			LPSI			RPSI			LTHI			LKNE			LTIB			LANK			LHEE			LTOE			RTHI			RKNE			RTIB			RANK			RHEE			RTOE			*39			*40			*41			*42			*43			*44			*45			
		X1	Y1	Z1	X2	Y2	Z2	X3	Y3	Z3	X4	Y4	Z4	X5	Y5	Z5	X6	Y6	Z6	X7	Y7	Z7	X8	Y8	Z8	X9	Y9	Z9	X10	Y10	Z10	X11	Y11	Z11	X12	Y12	Z12	X13	Y13	Z13	X14	Y14	Z14	X15	Y15	Z15	X16	Y16	Z16	X17	Y17	Z17	X18	Y18	Z18	X19	Y19	Z19	X20	Y20	Z20	X21	Y21	Z21	X22	Y22	Z22	X23	Y23	Z23	X24	Y24	Z24	X25	Y25	Z25	X26	Y26	Z26	X27	Y27	Z27	X28	Y28	Z28	X29	Y29	Z29	X30	Y30	Z30	X31	Y31	Z31	X32	Y32	Z32	X33	Y33	Z33	X34	Y34	Z34	X35	Y35	Z35	X36	Y36	Z36	X37	Y37	Z37	X38	Y38	Z38	X39	Y39	Z39	X40	Y40	Z40	X41	Y41	Z41	X42	Y42	Z42	X43	Y43	Z43	X44	Y44	Z44	X45	Y45	Z45	X46	Y46	Z46	

51	0.500	1474.84656	770.39441	1623.94092	1343.08887	784.86829	1631.34094	1484.35693	899.43597	1581.80676	1353.41394	908.04974	1588.24463	1416.72095	937.71997	1420.25061	1423.25537	959.80432	1105.10193	1416.09033	813.34277	1348.11304	1424.99426	763.30444	1185.36438	1322.40259	983.34015	1239.22473	1571.35608	865.97314	1386.47864	1650.73975	861.68524	1194.98340	1667.23523	833.40405	1077.97217	1659.72986	746.04230	987.41968	1620.11731	660.94904	912.88043	1665.35034	683.71753	892.07996	1653.07068	614.67218	848.99817	1257.15088	862.03870	1369.36475	1182.02820	855.81818	1147.46387	1168.19641	840.79749	1035.63232	1163.90417	827.77271	899.24615	1199.07349	802.48956	802.10101	1152.40308	831.61273	798.75958	1164.06189	814.95325	725.33893	1542.67358	791.40137	942.17920	1304.02466	791.20459	949.31976	1492.28870	953.35016	960.47375	1344.20959	952.91852	976.45923	1594.90857	809.43066	637.28131	1577.92053	775.44226	460.82220	1574.38049	928.87549	338.04526	1533.89209	1082.76917	200.52341	1492.09888	1133.49890	205.97223	1520.05920	1016.36584	66.58394	1262.89502	825.82959	653.87061	1306.27515	794.81702	479.31363	1305.02222	835.62506	288.69180	1357.80200	858.64655	74.76978	1408.02930	902.39484	42.89400	1380.18909	716.42542	37.10056																					 
52	0.510	1475.02136	758.16528	1624.67078	1343.23706	772.22620	1632.00647	1484.20422	887.25696	1582.82861	1353.33203	895.64026	1589.19055	1416.41797	925.74231	1421.24219	1422.25354	948.19916	1106.08813	1416.35388	801.39282	1349.05872	1425.11206	751.76276	1186.30164	1321.55005	971.03949	1240.40967	1571.43616	854.91833	1387.22339	1649.72339	852.75885	1194.90698	1665.71497	825.33685	1077.37061	1658.67651	740.27905	983.88385	1619.67212	657.45441	906.44690	1665.02014	680.97736	886.69702	1652.46008	613.95142	840.36951	1257.13916	849.37531	1370.57068	1181.85547	839.97369	1148.85608	1168.09607	823.05322	1037.28308	1163.83472	807.57587	901.18658	1198.57727	781.31006	804.52179	1152.25098	809.51019	800.72797	1163.60315	790.80890	728.09418	1541.90613	780.10516	943.98102	1303.50073	779.35461	950.24664	1491.65588	941.84711	961.83038	1343.48999	941.00092	977.45856	1594.07104	791.81958	639.44312	1576.52271	753.30865	463.95306	1572.59851	902.69586	336.31628	1532.01855	1052.28320	193.82092	1490.37878	1103.80054	196.40753	1516.70789	977.65674	64.65276	1263.40967	818.17322	654.06915	1306.40833	790.60687	478.87360	1305.16760	833.52576	288.88455	1358.17383	858.55566	74.93453	1408.42029	902.26013	43.31834	1380.41992	716.28406	36.93644	1435.23718	844.86420	1689.09412																		 
53	0.520	1475.28784	745.98163	1625.26672	1343.39661	759.72241	1632.55933	1484.17407	875.16779	1583.67749	1352.98621	883.11530	1589.92175	1416.11792	913.70813	1422.02112	1421.38672	936.57745	1106.95776	1416.67065	789.52051	1349.87024	1425.36804	740.13629	1187.08533	1320.75781	958.83392	1241.59827	1571.50208	843.84460	1387.84619	1648.69617	843.54272	1194.76990	1664.28772	817.26514	1076.68628	1657.67969	734.77350	980.23376	1618.90454	655.11932	899.18677	1664.91614	678.97784	881.07935	1652.09399	613.87482	831.49719	1257.15686	836.77356	1371.72937	1181.70557	824.28210	1150.20300	1168.11316	805.33258	1039.01489	1163.80981	787.40356	903.23590	1199.04199	760.04852	807.06287	1152.25793	787.22321	802.83484	1163.39709	766.19592	730.90948	1541.22375	768.57520	945.71307	1303.39001	767.89526	951.04126	1491.02820	930.31995	963.14478	1342.78052	929.10333	978.36371	1593.23145	774.63879	641.62561	1574.96594	731.72595	467.17023	1570.74731	876.35175	334.03003	1529.48303	1020.52637	185.94672	1488.33850	1072.79993	185.59846	1513.45361	938.02771	62.16275	1263.82446	809.47717	654.22357	1306.50928	786.47437	478.48254	1305.25488	831.62726	289.18423	1358.25281	858.33740	75.18650	1408.62451	902.10510	43.84069	1380.19531	716.30029	36.78889	1435.38879	832.48999	1689.79724																		 
54	0.530	1475.52649	733.80273	1625.69434	1343.72998	747.07153	1632.67432	1483.73499	862.85059	1584.32471	1353.18091	870.83179	1590.75598	1415.83923	901.78668	1422.70996	1420.60828	925.09802	1107.69873	1416.98462	777.65533	1350.49084	1425.62964	728.34131	1187.73975	1319.96643	946.70850	1242.77332	1571.56458	832.65167	1388.34021	1647.73779	834.17578	1194.63159	1662.86108	809.12799	1075.92383	1657.01599	729.89056	976.78375	1618.69885	652.63593	892.30444	1664.80798	677.49707	875.40222	1651.97290	614.60596	822.48303	1257.27087	824.11957	1372.67737	1181.56592	808.81586	1151.50378	1168.10974	787.76849	1040.71631	1163.88586	767.14258	905.30157	1199.35193	738.24609	809.79462	1152.34290	764.89899	805.09564	1163.27673	741.88513	734.03406	1540.50342	756.83777	947.24237	1303.00854	756.26355	951.49445	1490.47424	918.80988	964.40137	1342.11377	917.26837	979.14008	1592.43799	757.84619	643.72424	1573.25378	710.69043	470.41119	1568.77515	849.99713	331.22397	1527.19604	988.05920	177.30846	1486.16541	1040.56287	173.91364	1510.68176	897.90997	59.70902	1263.82825	802.28973	654.43475	1306.51343	782.54114	478.10815	1305.31409	829.73969	289.46695	1358.40100	858.12170	75.52890	1408.74475	902.06036	44.30465	1380.15735	716.16693	36.73783																					 
55	0.540	1475.85095	721.66077	1625.95667	1343.91956	734.59644	1632.93774	1483.24951	850.27814	1584.75403	1352.92603	858.37689	1591.20056	1415.69836	889.94000	1423.35815	1419.94629	913.56030	1108.34399	1417.29846	765.85547	1351.06873	1425.86597	717.07581	1188.33154	1319.18713	934.59412	1243.86108	1571.62280	821.38019	1388.70862	1646.84558	824.52576	1194.42554	1661.51221	801.00159	1075.07483	1656.22437	724.88574	972.92487	1618.67163	650.61652	885.05670	1664.81897	676.47540	869.62427	1652.18042	616.03186	813.42596	1257.38623	811.58459	1373.56372	1181.34753	793.63348	1152.80725	1168.10791	770.33569	1042.40869	1163.93896	746.99744	907.52576	1199.44299	715.77069	812.79407	1152.54077	742.53082	807.34546	1163.16028	717.52850	737.10632	1539.90308	745.52728	948.41779	1302.43542	744.46912	951.83905	1490.00647	907.24329	965.38049	1341.52502	905.46490	979.78027	1591.73926	741.47321	645.74323	1571.51599	690.33215	473.56564	1566.97070	823.62415	328.12003	1524.80029	954.30029	167.57318	1483.73267	1007.08508	161.48326	1507.69958	857.47931	56.36576	1264.03796	794.44287	654.43317	1306.25806	778.75354	477.74414	1305.31750	828.01440	289.87463	1358.58411	857.98889	76.13097	1409.18323	901.96814	45.47368	1380.07544	716.01141	36.64108																					 
56	0.550	1476.16724	709.45306	1626.04443	1344.26636	722.15198	1633.07751	1483.87634	838.80212	1585.30994	1353.22937	846.18134	1591.69299	1415.48511	877.97113	1423.76416	1419.32202	901.98645	1108.87622	1417.67798	754.06342	1351.40173	1426.10107	705.44989	1188.56067	1318.36536	922.46497	1244.76147	1571.72815	809.97443	1388.85461	1646.09241	814.65039	1194.10596	1660.22388	792.77960	1074.06018	1655.48047	719.98523	968.94519	1618.77490	649.08942	877.68597	1664.93555	675.74261	863.65533	1652.60876	618.18256	804.36072	1257.55383	798.91187	1374.27173	1181.16272	778.59607	1153.91589	1167.98462	753.17590	1043.97388	1164.06482	726.91138	909.65588	1200.13611	694.38440	815.52203	1152.78357	720.25262	809.68182	1163.24146	693.13110	740.27136	1539.30518	734.16888	949.20563	1302.28906	733.28223	951.79901	1489.67493	895.60107	966.09607	1341.07727	893.75433	980.28528	1591.04089	725.53894	647.62805	1569.65039	670.77039	476.67838	1564.73206	797.04041	324.69342	1522.43555	919.92218	158.02843	1481.26807	972.51508	148.68452	1504.92102	816.08099	52.89022	1264.60596	786.32495	654.42780	1305.96582	775.00769	477.46173	1305.31421	826.19995	290.34009	1358.71826	857.76227	76.74557	1409.47461	901.74066	46.29398	1379.91272	715.86914	36.60441	1435.60852	795.23267	1691.19800																		 
57	0.560	1476.55688	697.34369	1625.91125	1344.64307	709.77039	1633.06226	1484.05945	826.88489	1585.48987	1353.33142	833.83887	1591.91760	1415.41223	866.17865	1424.10034	1418.76367	890.46179	1109.22583	1417.97803	742.24414	1351.60205	1426.13086	693.88068	1188.61365	1317.51379	910.34338	1245.43652	1571.86719	798.50562	1388.82825	1645.47729	804.57611	1193.61011	1658.99976	784.42902	1072.84814	1654.89319	715.29834	964.73834	1618.97827	647.96533	870.11047	1665.10132	675.60883	857.64679	1653.30212	620.92804	795.40753	1257.76685	786.45532	1374.80042	1180.97412	763.76135	1154.90015	1167.78113	736.14148	1045.43164	1164.14038	706.98505	911.74866	1200.70654	672.98224	818.46002	1153.13208	698.00592	812.01556	1163.47656	669.00793	743.61664	1538.87610	721.30426	950.06812	1301.92700	721.73822	951.63635	1489.43103	883.97772	966.45905	1340.75830	882.16992	980.59698	1590.41589	709.98761	649.28082	1568.06213	652.34143	479.65823	1562.69629	771.18213	321.13412	1519.75195	884.20654	147.44313	1478.90149	936.67084	135.45528	1502.87927	774.38550	49.70906	1264.30469	778.94159	654.45844	1305.68762	771.01971	477.08023	1305.29309	824.30133	290.80096	1358.88428	857.40198	77.51975	1409.64624	901.50665	47.38876	1379.82043	715.66949	36.50734																					 
